<svg xmlns="http://www.w3.org/2000/svg" width="32" height="32" viewBox="0 0 32 32">
  <rect width="32" height="32" rx="6" fill="#4361EE"/>
  <path d="M16 6C11.582 6 8 9.582 8 14C8 18.418 11.582 22 16 22C20.418 22 24 18.418 24 14C24 9.582 20.418 6 16 6ZM16 20C12.686 20 10 17.314 10 14C10 10.686 12.686 8 16 8C19.314 8 22 10.686 22 14C22 17.314 19.314 20 16 20Z" fill="white"/>
  <path d="M16 10C15.448 10 15 10.448 15 11V17C15 17.552 15.448 18 16 18C16.552 18 17 17.552 17 17V11C17 10.448 16.552 10 16 10Z" fill="white"/>
  <path d="M19 12C18.448 12 18 12.448 18 13V15C18 15.552 18.448 16 19 16C19.552 16 20 15.552 20 15V13C20 12.448 19.552 12 19 12Z" fill="white"/>
  <path d="M13 12C12.448 12 12 12.448 12 13V15C12 15.552 12.448 16 13 16C13.552 16 14 15.552 14 15V13C14 12.448 13.552 12 13 12Z" fill="white"/>
  <path d="M16 19C15.448 19 15 19.448 15 20V21C15 21.552 15.448 22 16 22C16.552 22 17 21.552 17 21V20C17 19.448 16.552 19 16 19Z" fill="white"/>
</svg>
