<svg xmlns="http://www.w3.org/2000/svg" width="500" height="500" viewBox="0 0 500 500">
  <defs>
    <linearGradient id="shieldGrad" x1="0%" y1="0%" x2="100%" y2="100%">
      <stop offset="0%" style="stop-color:#4361ee" />
      <stop offset="100%" style="stop-color:#4cc9f0" />
    </linearGradient>
    <filter id="glow" x="-20%" y="-20%" width="140%" height="140%">
      <feGaussianBlur stdDeviation="10" result="blur" />
      <feComposite in="SourceGraphic" in2="blur" operator="over" />
    </filter>
    <clipPath id="waveClip">
      <path d="M 100,250 C 150,230 200,270 250,250 C 300,230 350,270 400,250 L 400,400 L 100,400 Z" />
    </clipPath>
  </defs>
  
  <!-- Shield outline -->
  <path d="M 250,50 L 400,120 L 400,250 C 400,350 330,400 250,450 C 170,400 100,350 100,250 L 100,120 Z" 
        fill="url(#shieldGrad)" filter="url(#glow)" />
  
  <!-- Inner shield -->
  <path d="M 250,80 L 370,140 L 370,250 C 370,330 310,380 250,420 C 190,380 130,330 130,250 L 130,140 Z" 
        fill="#1a1a2e" />
  
  <!-- Lock body -->
  <rect x="190" y="200" width="120" height="100" rx="10" ry="10" fill="url(#shieldGrad)" />
  
  <!-- Lock shackle -->
  <path d="M 210,200 L 210,170 C 210,140 290,140 290,170 L 290,200" 
        fill="none" stroke="url(#shieldGrad)" stroke-width="20" stroke-linecap="round" />
  
  <!-- Keyhole -->
  <circle cx="250" cy="230" r="15" fill="#1a1a2e" />
  <rect x="245" y="230" width="10" height="30" fill="#1a1a2e" />
  
  <!-- Sound waves (clipped to shield) -->
  <g clip-path="url(#waveClip)">
    <!-- Concentric sound waves -->
    <circle cx="250" cy="320" r="30" fill="none" stroke="white" stroke-width="3" stroke-opacity="0.8" />
    <circle cx="250" cy="320" r="50" fill="none" stroke="white" stroke-width="3" stroke-opacity="0.6" />
    <circle cx="250" cy="320" r="70" fill="none" stroke="white" stroke-width="3" stroke-opacity="0.4" />
    <circle cx="250" cy="320" r="90" fill="none" stroke="white" stroke-width="3" stroke-opacity="0.2" />
  </g>
  
  <!-- Digital elements -->
  <circle cx="150" cy="150" r="5" fill="white" />
  <circle cx="350" cy="150" r="5" fill="white" />
  <circle cx="180" cy="350" r="5" fill="white" />
  <circle cx="320" cy="350" r="5" fill="white" />
  
  <line x1="150" y1="150" x2="180" y2="350" stroke="white" stroke-width="1" stroke-opacity="0.5" />
  <line x1="350" y1="150" x2="320" y2="350" stroke="white" stroke-width="1" stroke-opacity="0.5" />
  <line x1="150" y1="150" x2="350" y2="150" stroke="white" stroke-width="1" stroke-opacity="0.5" />
  <line x1="180" y1="350" x2="320" y2="350" stroke="white" stroke-width="1" stroke-opacity="0.5" />
</svg>
