<svg width="36" height="36" viewBox="0 0 36 36" fill="none" xmlns="http://www.w3.org/2000/svg">
  <rect width="36" height="36" rx="8" fill="#4361EE"/>
  <path d="M18 8C12.477 8 8 12.477 8 18C8 23.523 12.477 28 18 28C23.523 28 28 23.523 28 18C28 12.477 23.523 8 18 8ZM18 26C13.582 26 10 22.418 10 18C10 13.582 13.582 10 18 10C22.418 10 26 13.582 26 18C26 22.418 22.418 26 18 26Z" fill="white"/>
  <path d="M18 13C16.895 13 16 13.895 16 15V21C16 22.105 16.895 23 18 23C19.105 23 20 22.105 20 21V15C20 13.895 19.105 13 18 13Z" fill="white"/>
  <path d="M22 16C21.448 16 21 16.448 21 17V19C21 19.552 21.448 20 22 20C22.552 20 23 19.552 23 19V17C23 16.448 22.552 16 22 16Z" fill="white"/>
  <path d="M14 16C13.448 16 13 16.448 13 17V19C13 19.552 13.448 20 14 20C14.552 20 15 19.552 15 19V17C15 16.448 14.552 16 14 16Z" fill="white"/>
  <path d="M18 24C16.895 24 16 24.895 16 26C16 27.105 16.895 28 18 28C19.105 28 20 27.105 20 26C20 24.895 19.105 24 18 24Z" fill="white"/>
</svg>
